Coordinates
version=1
nRows=17
nColumns=40
inDegrees=yes

Units are S.I. units (second, meters, Newtons, ...)
Angles are in degrees.

endheader
time	pelvis_tilt	pelvis_list	pelvis_rotation	pelvis_tx	pelvis_ty	pelvis_tz	hip_flexion_r	hip_adduction_r	hip_rotation_r	knee_angle_r	knee_angle_r_beta	ankle_angle_r	subtalar_angle_r	mtp_angle_r	hip_flexion_l	hip_adduction_l	hip_rotation_l	knee_angle_l	knee_angle_l_beta	ankle_angle_l	subtalar_angle_l	mtp_angle_l	lumbar_extension	lumbar_bending	lumbar_rotation	arm_flex_r	arm_add_r	arm_rot_r	elbow_flex_r	pro_sup_r	wrist_flex_r	wrist_dev_r	arm_flex_l	arm_add_l	arm_rot_l	elbow_flex_l	pro_sup_l	wrist_flex_l	wrist_dev_l
      8.44250000	     -2.33831961	     -5.51319188	     -1.78844210	      1.02888792	      0.91374244	      0.36139730	     26.51482613	     -5.61178267	      1.57979537	     63.64658152	     63.64658152	      3.88825911	     -8.93344871	     -2.67102201	     19.45900231	     -2.55630421	     -0.77478298	     35.17685781	     35.17685781	     20.35582450	    -16.58798752	      6.28695464	    -11.45997820	      7.62079670	      2.33407829	      1.48766734	    -12.50076253	     -9.37428907	     20.27231576	     47.13412803	      0.00000000	      0.00000000	     26.20160936	    -13.95885107	     12.84383311	     39.55053770	     45.92697031	      0.00000000	      0.00000000
      8.46357143	     -2.28937042	     -5.54719897	     -2.53160828	      1.02904229	      0.91421322	      0.36138945	     27.12893896	     -5.49353054	      1.76699125	     62.23585258	     62.23585258	      4.40814176	     -8.95447485	     -3.14339491	     18.86117842	     -2.70810451	     -1.35609248	     34.96781053	     34.96781053	     20.74849195	    -16.61042890	      6.69105162	    -11.50027618	      7.84752670	      1.86103597	     -1.88018477	    -12.51004303	    -10.68264833	     20.75788950	     47.23014256	      0.00000000	      0.00000000	     26.86473365	    -14.19712375	      8.86242217	     41.94715176	     46.38885877	      0.00000000	      0.00000000
      8.48464286	     -2.30457686	     -5.56704216	     -3.35048950	      1.02903282	      0.91529223	      0.36200950	     27.59075331	     -5.35494944	      1.83741370	     60.04608211	     60.04608211	      5.06887664	     -8.72057940	     -3.49495751	     18.13630084	     -2.89358677	     -2.03571990	     34.38244994	     34.38244994	     20.88888175	    -16.63699549	      6.75605408	    -11.48138327	      7.95680218	      1.83405988	     -4.73817349	    -12.59515579	    -10.83535072	     19.79377068	     47.26226390	      0.00000000	      0.00000000	     28.19556292	    -14.64962055	      7.92982086	     43.14668909	     46.50898830	      0.00000000	      0.00000000
      8.50571429	     -2.41658950	     -5.61081214	     -4.22680974	      1.02881094	      0.91689198	      0.36317663	     27.88938597	     -5.14467418	      1.76300391	     57.05360309	     57.05360309	      5.67082630	     -8.26544314	     -4.15899172	     17.35174119	     -3.14934277	     -2.80010380	     33.48153414	     33.48153414	     20.87202931	    -16.55916799	      6.79612417	    -11.41552090	      8.03160591	      1.83012958	     -7.46369945	    -12.64397475	    -11.06018708	     19.54486973	     47.26771325	      0.00000000	      0.00000000	     29.33210991	    -15.15763345	      6.52238508	     44.76310169	     46.67514322	      0.00000000	      0.00000000
      8.52678571	     -2.70447570	     -5.68897965	     -5.10942385	      1.02843959	      0.91880350	      0.36478148	     28.01865925	     -4.82237248	      1.57292445	     53.15436195	     53.15436195	      5.38580079	     -7.95072791	     -6.73944327	     16.61953495	     -3.47008941	     -3.59463546	     32.28614853	     32.28614853	     20.49560079	    -16.51044377	      6.20514056	    -11.24212868	      8.17638151	      1.35109982	    -10.32684460	    -12.72697375	    -11.51148165	     21.59259206	     47.17829085	      0.00000000	      0.00000000	     29.47429517	    -15.41036978	      2.19692158	     47.74821688	     47.10100607	      0.00000000	      0.00000000
      8.54785714	     -2.99049565	     -5.76019137	     -6.03099110	      1.02788378	      0.92099846	      0.36689486	     27.93960745	     -4.45072713	      1.25748784	     48.79080362	     48.79080362	      5.51369990	     -6.87077127	     -7.77848204	     15.78919136	     -3.81060372	     -4.47937455	     30.91327326	     30.91327326	     20.09624519	    -16.37728490	      5.85041864	    -11.07463982	      8.24463627	      1.25948651	    -12.55147863	    -12.79265403	    -11.26926622	     22.21983342	     47.08929852	      0.00000000	      0.00000000	     30.22970532	    -15.76649760	     -0.10767239	     49.72179426	     47.30938210	      0.00000000	      0.00000000
      8.56892857	     -3.32055853	     -5.80960761	     -6.93590882	      1.02717722	      0.92318411	      0.36940365	     27.70451126	     -4.04229779	      0.81626896	     44.07437196	     44.07437196	      5.72718981	     -5.11052127	     -7.79345291	     14.95414662	     -4.13437585	     -5.38635731	     29.43733070	     29.43733070	     19.66855864	    -16.16453621	      5.48351389	    -10.89227910	      8.24831828	      1.22182351	    -14.49705630	    -12.76439829	    -10.91202442	     23.12269091	     46.97598745	      0.00000000	      0.00000000	     30.95419879	    -16.23498250	     -1.97063882	     51.88635413	     47.47094462	      0.00000000	      0.00000000
      8.59000000	     -3.66458614	     -5.85229605	     -7.80090623	      1.02635795	      0.92527029	      0.37225402	     27.26130782	     -3.55838386	      0.30078421	     39.08672799	     39.08672799	      5.79316020	     -2.89582676	     -7.14782541	     14.14629101	     -4.45831677	     -6.28736183	     27.97808668	     27.97808668	     19.42590701	    -15.80980980	      5.57805623	    -10.69408571	      8.23178319	      1.39258031	    -15.87435670	    -12.62582465	    -10.84456746	     23.20133319	     46.94603828	      0.00000000	      0.00000000	     32.01759978	    -16.79399024	     -2.72576707	     53.23694382	     47.55525381	      0.00000000	      0.00000000
      8.61107143	     -4.11799685	     -5.85938705	     -8.60430792	      1.02546359	      0.92681726	      0.37536221	     26.77950400	     -2.98247930	     -0.19427635	     34.02816065	     34.02816065	      5.56043079	     -0.72256894	     -6.18553732	     13.56332137	     -4.74986289	     -7.08793854	     26.70283562	     26.70283562	     19.20653967	    -15.48617553	      5.63784334	    -10.32144375	      8.21216484	      1.47269796	    -16.96652271	    -12.47555218	    -10.84432443	     23.35337871	     46.92333177	      0.00000000	      0.00000000	     32.93936520	    -17.31441489	     -3.37203443	     54.43391300	     47.63032993	      0.00000000	      0.00000000
      8.63214286	     -4.38878328	     -5.70083530	     -9.33850842	      1.02478672	      0.92803066	      0.37849243	     26.13833932	     -2.76442983	     -1.21301268	     29.37083284	     29.37083284	      5.61612189	      2.96888427	     -4.12397358	     12.75633722	     -4.85940912	     -8.09797214	     25.32240593	     25.32240593	     18.58164124	    -15.06118782	      4.37137976	    -10.30253287	      7.98830014	      1.46123490	    -18.42657842	    -12.35030453	    -10.77250469	     25.74077814	     46.77219568	      0.00000000	      0.00000000	     32.96367476	    -17.55170712	     -6.15399795	     58.28916687	     47.88639550	      0.00000000	      0.00000000
      8.65321429	     -4.62439480	     -5.60802730	     -9.95326505	      1.02407424	      0.92884446	      0.38191565	     25.33077913	     -2.22880497	     -1.75567650	     24.84086423	     24.84086423	      4.98548748	      5.31187367	     -2.52768133	     12.10038997	     -5.01159184	     -8.83525287	     24.31594381	     24.31594381	     18.42302966	    -14.74400573	      4.16210816	    -10.21604105	      7.83750475	      1.58366552	    -18.95549482	    -12.11606156	    -10.60003960	     26.08185587	     46.73119951	      0.00000000	      0.00000000	     33.91635060	    -17.99666035	     -6.87377712	     59.57987216	     47.96259117	      0.00000000	      0.00000000
      8.67428571	     -4.91536539	     -5.34465372	    -10.48560394	      1.02353309	      0.92892927	      0.38526800	     24.89556237	     -1.98255171	     -2.66229687	     21.35394304	     21.35394304	      5.15976588	      8.29683796	      1.44396249	     11.55353241	     -4.98947852	     -9.61572166	     23.30148536	     23.30148536	     17.73072119	    -14.53826866	      2.36760441	    -10.06339456	      7.54238553	      1.17484538	    -19.53927592	    -12.12631023	     -9.40742926	     28.02399789	     46.51419889	      0.00000000	      0.00000000	     33.69424118	    -18.30288027	     -9.55904507	     63.12413791	     48.16658347	      0.00000000	      0.00000000
      8.69535714	     -5.14959657	     -5.06548393	    -10.90555675	      1.02318738	      0.92863410	      0.38873554	     24.33434433	     -1.66997654	     -3.28354810	     18.14899740	     18.14899740	      4.32023936	     10.25133783	      2.63281879	     11.16206247	     -4.93649709	    -10.17186931	     22.73597156	     22.73597156	     17.80418184	    -14.23363960	      2.18886583	     -9.87584351	      7.26927425	      1.47492485	    -19.68911065	    -11.82822008	     -9.16742311	     28.10645556	     46.48665569	      0.00000000	      0.00000000	     34.60558772	    -18.45955754	     -9.86049947	     64.20628492	     48.20626562	      0.00000000	      0.00000000
      8.71642857	     -5.32281071	     -4.72159152	    -11.23064763	      1.02314731	      0.92800153	      0.39216830	     23.98728748	     -1.54789782	     -4.18482617	     15.97318166	     15.97318166	      3.98239507	     12.31921946	      4.54706928	     10.75241366	     -4.82378433	    -10.79403815	     22.22861857	     22.22861857	     17.63636107	    -13.90295802	      1.09558476	     -9.77669094	      6.94848079	      1.25109614	    -19.62586115	    -11.77750300	     -8.23249106	     28.95593606	     46.36274412	      0.00000000	      0.00000000	     34.48480216	    -18.70661297	    -11.51034198	     67.20899608	     48.33272981	      0.00000000	      0.00000000
      8.73750000	     -5.47847835	     -4.38460332	    -11.46947752	      1.02343896	      0.92721207	      0.39568995	     23.62400015	     -1.37075581	     -4.64267804	     14.25043320	     14.25043320	      3.33965016	     13.32761856	      5.06376472	     10.39816699	     -4.67420786	    -11.14128484	     21.89535672	     21.89535672	     17.81187608	    -13.71595777	      0.91033466	     -9.60208906	      6.68732057	      1.58946938	    -19.52666740	    -11.54275237	     -7.99836242	     29.00828830	     46.34122741	      0.00000000	      0.00000000	     35.17220218	    -18.64972978	    -11.77607438	     68.25307292	     48.36723146	      0.00000000	      0.00000000
      8.75857143	     -5.58031421	     -4.03391301	    -11.62864165	      1.02409895	      0.92626331	      0.39922696	     23.39195690	     -1.31664781	     -5.16955166	     13.30535663	     13.30535663	      2.67680746	     14.17457625	      4.33149088	     10.01045641	     -4.52365048	    -11.53845798	     21.61821938	     21.61821938	     17.88129032	    -13.40870046	      0.17324081	     -9.51871692	      6.43981641	      1.36200511	    -19.11456474	    -11.58795802	     -7.18310093	     29.36478244	     46.25977501	      0.00000000	      0.00000000	     34.83195027	    -18.77564441	    -13.28526025	     71.14971063	     48.48418691	      0.00000000	      0.00000000
      8.77964286	     -5.61708113	     -3.74920162	    -11.73924713	      1.02522654	      0.92549032	      0.40296772	     23.11051179	     -1.21211855	     -5.34768114	     12.82689626	     12.82689626	      2.37745352	     14.37079415	      3.81637054	      9.47707187	     -4.38430640	    -11.74035555	     21.26917928	     21.26917928	     18.10070770	    -13.25896559	      0.03778077	     -9.45065635	      6.30001734	      1.75209779	    -18.91705422	    -11.46572972	     -6.84744873	     29.34903643	     46.23526400	      0.00000000	      0.00000000	     35.20254363	    -18.52705579	    -13.62066280	     72.43531984	     48.52102449	      0.00000000	      0.00000000
